<svg xmlns="http://www.w3.org/2000/svg" xmlns:xlink="http://www.w3.org/1999/xlink" width="500" zoomAndPan="magnify" viewBox="0 0 375 374.999991" height="500" preserveAspectRatio="xMidYMid meet" version="1.0"><defs><g/><clipPath id="cc6d27473e"><path d="M 20.160156 166.308594 L 354.839844 166.308594 L 354.839844 206.523438 L 20.160156 206.523438 Z M 20.160156 166.308594 " clip-rule="nonzero"/></clipPath></defs><g fill="#fbfaf9" fill-opacity="1"><g transform="translate(56.370833, 259.53815)"><g><path d="M 131.742188 -141.660156 L 3.542969 -141.660156 L 13.8125 -127.316406 C 28.507812 -136.347656 40.550781 -137.941406 50.464844 -137.941406 L 52.769531 -137.941406 L 52.769531 -37.894531 C 52.769531 -21.425781 52.238281 -13.457031 50.820312 0 L 84.464844 0 C 83.046875 -13.457031 82.515625 -21.425781 82.515625 -37.894531 L 82.515625 -137.941406 L 84.820312 -137.941406 C 94.734375 -137.941406 106.953125 -136.347656 121.472656 -127.316406 Z M 131.742188 -141.660156 "/></g></g></g><g fill="#fbfaf9" fill-opacity="1"><g transform="translate(182.798535, 259.53815)"><g><path d="M 86.234375 -79.328125 C 107.484375 -83.046875 116.871094 -92.609375 116.871094 -109.609375 C 116.871094 -137.054688 92.964844 -141.660156 67.464844 -141.660156 L 12.394531 -141.660156 C 13.8125 -128.203125 14.34375 -120.234375 14.34375 -103.765625 L 14.34375 -37.894531 C 14.34375 -21.425781 13.8125 -13.457031 12.394531 0 L 70.296875 0 C 101.640625 0 126.960938 -9.03125 126.960938 -39.3125 C 126.960938 -64.277344 109.785156 -75.257812 86.234375 -79.328125 Z M 44.089844 -137.941406 L 55.777344 -137.941406 C 71.714844 -137.941406 86.589844 -130.328125 86.589844 -109.609375 C 86.589844 -91.195312 78.796875 -81.277344 57.019531 -81.277344 L 44.089844 -81.277344 Z M 57.550781 -3.71875 L 44.089844 -3.71875 L 44.089844 -77.558594 L 58.789062 -77.558594 C 74.195312 -77.558594 94.734375 -70.828125 94.734375 -38.957031 C 94.734375 -12.574219 77.558594 -3.71875 57.550781 -3.71875 Z M 57.550781 -3.71875 "/></g></g></g><g clip-path="url(#cc6d27473e)"><path fill="#231f20" d="M 20.160156 166.308594 L 354.777344 166.308594 L 354.777344 207.8125 L 20.160156 207.8125 Z M 20.160156 166.308594 " fill-opacity="1" fill-rule="nonzero"/></g><g fill="#dec2ba" fill-opacity="1"><g transform="translate(76.584994, 190.806194)"><g><path d="M 7.0625 -7.359375 L 4.3125 -7.359375 L 4.3125 0 L 2.84375 0 L 2.84375 -7.359375 L 0.109375 -7.359375 L 0.109375 -8.671875 L 7.0625 -8.671875 Z M 7.0625 -7.359375 "/></g></g></g><g fill="#dec2ba" fill-opacity="1"><g transform="translate(93.679381, 190.806194)"><g><path d="M 8.65625 0 L 7.203125 0 L 7.203125 -3.59375 L 2.609375 -3.59375 L 2.609375 0 L 1.140625 0 L 1.140625 -8.671875 L 2.609375 -8.671875 L 2.609375 -4.90625 L 7.203125 -4.90625 L 7.203125 -8.671875 L 8.65625 -8.671875 Z M 8.65625 0 "/></g></g></g><g fill="#dec2ba" fill-opacity="1"><g transform="translate(113.39958, 190.806194)"><g><path d="M 1.75 -7.4375 C 2.632812 -8.28125 3.722656 -8.703125 5.015625 -8.703125 C 6.316406 -8.703125 7.40625 -8.28125 8.28125 -7.4375 C 9.164062 -6.601562 9.609375 -5.566406 9.609375 -4.328125 C 9.609375 -3.097656 9.164062 -2.054688 8.28125 -1.203125 C 7.40625 -0.359375 6.316406 0.0625 5.015625 0.0625 C 3.722656 0.0625 2.632812 -0.359375 1.75 -1.203125 C 0.863281 -2.054688 0.421875 -3.097656 0.421875 -4.328125 C 0.421875 -5.566406 0.863281 -6.601562 1.75 -7.4375 Z M 5.03125 -7.390625 C 4.164062 -7.390625 3.425781 -7.09375 2.8125 -6.5 C 2.207031 -5.914062 1.90625 -5.191406 1.90625 -4.328125 C 1.90625 -3.472656 2.210938 -2.742188 2.828125 -2.140625 C 3.441406 -1.546875 4.175781 -1.25 5.03125 -1.25 C 5.882812 -1.25 6.609375 -1.546875 7.203125 -2.140625 C 7.804688 -2.742188 8.109375 -3.472656 8.109375 -4.328125 C 8.109375 -5.191406 7.804688 -5.914062 7.203125 -6.5 C 6.609375 -7.09375 5.882812 -7.390625 5.03125 -7.390625 Z M 5.03125 -7.390625 "/></g></g></g><g fill="#dec2ba" fill-opacity="1"><g transform="translate(133.355114, 190.806194)"><g><path d="M 10.3125 0 L 8.953125 0 L 8.953125 -6.484375 L 6.203125 -0.90625 L 5.25 -0.90625 L 2.515625 -6.484375 L 2.515625 0 L 1.140625 0 L 1.140625 -8.671875 L 2.875 -8.671875 L 5.734375 -2.90625 L 8.59375 -8.671875 L 10.3125 -8.671875 Z M 10.3125 0 "/></g></g></g><g fill="#dec2ba" fill-opacity="1"><g transform="translate(154.735021, 190.806194)"><g><path d="M 6.734375 -1.953125 L 2.359375 -1.953125 L 1.53125 0 L 0.015625 0 L 3.84375 -8.671875 L 5.34375 -8.671875 L 9.125 0 L 7.578125 0 Z M 6.1875 -3.265625 L 4.546875 -7.109375 L 2.90625 -3.265625 Z M 6.1875 -3.265625 "/></g></g></g><g fill="#dec2ba" fill-opacity="1"><g transform="translate(173.798767, 190.806194)"><g><path d="M 3.984375 -8.734375 C 5.109375 -8.734375 6.125 -8.4375 7.03125 -7.84375 L 6.421875 -6.546875 C 5.535156 -7.085938 4.6875 -7.359375 3.875 -7.359375 C 3.4375 -7.359375 3.09375 -7.28125 2.84375 -7.125 C 2.59375 -6.96875 2.46875 -6.742188 2.46875 -6.453125 C 2.46875 -6.160156 2.582031 -5.914062 2.8125 -5.71875 C 3.039062 -5.519531 3.328125 -5.367188 3.671875 -5.265625 C 4.023438 -5.171875 4.40625 -5.050781 4.8125 -4.90625 C 5.21875 -4.769531 5.59375 -4.617188 5.9375 -4.453125 C 6.28125 -4.296875 6.566406 -4.046875 6.796875 -3.703125 C 7.023438 -3.359375 7.140625 -2.941406 7.140625 -2.453125 C 7.140625 -1.691406 6.832031 -1.082031 6.21875 -0.625 C 5.613281 -0.175781 4.828125 0.046875 3.859375 0.046875 C 3.203125 0.046875 2.5625 -0.0703125 1.9375 -0.3125 C 1.320312 -0.5625 0.785156 -0.898438 0.328125 -1.328125 L 0.953125 -2.59375 C 1.390625 -2.1875 1.867188 -1.875 2.390625 -1.65625 C 2.921875 -1.4375 3.421875 -1.328125 3.890625 -1.328125 C 4.398438 -1.328125 4.796875 -1.421875 5.078125 -1.609375 C 5.367188 -1.796875 5.515625 -2.050781 5.515625 -2.375 C 5.515625 -2.675781 5.394531 -2.925781 5.15625 -3.125 C 4.925781 -3.332031 4.640625 -3.484375 4.296875 -3.578125 C 3.953125 -3.671875 3.578125 -3.785156 3.171875 -3.921875 C 2.765625 -4.054688 2.390625 -4.195312 2.046875 -4.34375 C 1.703125 -4.5 1.410156 -4.742188 1.171875 -5.078125 C 0.941406 -5.421875 0.828125 -5.832031 0.828125 -6.3125 C 0.828125 -7.050781 1.113281 -7.640625 1.6875 -8.078125 C 2.269531 -8.515625 3.035156 -8.734375 3.984375 -8.734375 Z M 3.984375 -8.734375 "/></g></g></g><g fill="#dec2ba" fill-opacity="1"><g transform="translate(191.425751, 190.806194)"><g/></g></g><g fill="#dec2ba" fill-opacity="1"><g transform="translate(204.544286, 190.806194)"><g><path d="M 1.140625 -8.671875 L 4.90625 -8.671875 C 5.800781 -8.671875 6.507812 -8.476562 7.03125 -8.09375 C 7.550781 -7.707031 7.8125 -7.175781 7.8125 -6.5 C 7.8125 -6.019531 7.675781 -5.609375 7.40625 -5.265625 C 7.132812 -4.921875 6.765625 -4.691406 6.296875 -4.578125 C 6.867188 -4.472656 7.320312 -4.226562 7.65625 -3.84375 C 7.988281 -3.457031 8.15625 -2.96875 8.15625 -2.375 C 8.15625 -1.632812 7.875 -1.050781 7.3125 -0.625 C 6.75 -0.207031 5.976562 0 5 0 L 1.140625 0 Z M 2.609375 -7.375 L 2.609375 -5.078125 L 4.828125 -5.078125 C 5.296875 -5.078125 5.660156 -5.179688 5.921875 -5.390625 C 6.179688 -5.597656 6.3125 -5.882812 6.3125 -6.25 C 6.3125 -6.613281 6.179688 -6.890625 5.921875 -7.078125 C 5.660156 -7.273438 5.296875 -7.375 4.828125 -7.375 Z M 2.609375 -3.796875 L 2.609375 -1.296875 L 4.828125 -1.296875 C 5.410156 -1.296875 5.859375 -1.40625 6.171875 -1.625 C 6.492188 -1.84375 6.65625 -2.15625 6.65625 -2.5625 C 6.65625 -2.945312 6.492188 -3.25 6.171875 -3.46875 C 5.847656 -3.6875 5.398438 -3.796875 4.828125 -3.796875 Z M 2.609375 -3.796875 "/></g></g></g><g fill="#dec2ba" fill-opacity="1"><g transform="translate(223.211684, 190.806194)"><g><path d="M 6.734375 -1.953125 L 2.359375 -1.953125 L 1.53125 0 L 0.015625 0 L 3.84375 -8.671875 L 5.34375 -8.671875 L 9.125 0 L 7.578125 0 Z M 6.1875 -3.265625 L 4.546875 -7.109375 L 2.90625 -3.265625 Z M 6.1875 -3.265625 "/></g></g></g><g fill="#dec2ba" fill-opacity="1"><g transform="translate(242.275424, 190.806194)"><g><path d="M 2.609375 0 L 1.140625 0 L 1.140625 -8.671875 L 2.609375 -8.671875 Z M 2.609375 0 "/></g></g></g><g fill="#dec2ba" fill-opacity="1"><g transform="translate(255.938933, 190.806194)"><g><path d="M 2.609375 -1.328125 L 6.359375 -1.328125 L 6.359375 0 L 1.140625 0 L 1.140625 -8.671875 L 2.609375 -8.671875 Z M 2.609375 -1.328125 "/></g></g></g><g fill="#dec2ba" fill-opacity="1"><g transform="translate(272.475964, 190.806194)"><g><path d="M 7.328125 -7.359375 L 2.609375 -7.359375 L 2.609375 -5.015625 L 6.84375 -5.015625 L 6.84375 -3.703125 L 2.609375 -3.703125 L 2.609375 -1.3125 L 7.484375 -1.3125 L 7.484375 0 L 1.140625 0 L 1.140625 -8.671875 L 7.328125 -8.671875 Z M 7.328125 -7.359375 "/></g></g></g><g fill="#dec2ba" fill-opacity="1"><g transform="translate(290.524061, 190.806194)"><g><path d="M 4.703125 -2.890625 L 4.703125 0 L 3.25 0 L 3.25 -2.84375 L 0.015625 -8.671875 L 1.484375 -8.671875 L 3.96875 -4.453125 L 6.390625 -8.671875 L 7.875 -8.671875 Z M 4.703125 -2.890625 "/></g></g></g></svg>